# xmcd
#
# Track frame offsets: 
#        150
#        23324
#        45947
#        59735
#        75353
#        102613
#        120704
#        142213
#        153862
#        170125
#        189183
#        211219
#        227114
#        242906
#        256361
#        275731
#        304325
#        322886
#        337108
#
# Disc length: 4670 seconds
#
# Revision: 1
# Processed by: cddbd v1.5.2PL0 Copyright (c) Steve Scherf et al.
# Submitted via: ExactAudioCopy v1.3
#
DISCID=0f123c13
DTITLE=Big Bill Broonzy - Four Classic Albums Plus - CD One
DYEAR=2010
DGENRE=Blues
TTITLE0=Bossie Woman (Big Bill's Blues)
TTITLE1=Texas Tornado (Big Bill's Blues)
TTITLE2=Tell Me What Kind Of Man Jesus Is (Big Bill's Blues)
TTITLE3=Trouble In Mind (Big Bill's Blues)
TTITLE4=See See Rider (Big Bill's Blues)
TTITLE5=When I've Been Drinkin' (Big Bill's Blues)
TTITLE6=Martha (Big Bill's Blues)
TTITLE7=Swing Low Sweet Chariot (Big Bill's Blues)
TTITLE8=Key To The Highway (Big Bill's Blues)
TTITLE9=Goodby Baby Blues (Big Bill's Blues)
TTITLE10=Big Bill's Guitar Blues (Big Bill Broonzy Sings The Blues)
TTITLE11=Somebody's Got To Go (Big Bill Broonzy Sings The Blues)
TTITLE12=Water Coast (Big Bill Broonzy Sings The Blues)
TTITLE13=Take This Ole' Hammer (Big Bill Broonzy Sings The Blues)
TTITLE14=Diggin' My Potatoes (Big Bill Broonzy Sings The Blues)
TTITLE15=Rock Me Baby (Big Bill Broonzy Sings The Blues)
TTITLE16=Careless Love (Big Bill Broonzy Sings The Blues)
TTITLE17=I Love My Whiskey (1949 Sessions)
TTITLE18=You've Been Mistreating Me (1949 Sessions)
EXTD=
EXTT0=
EXTT1=
EXTT2=
EXTT3=
EXTT4=
EXTT5=
EXTT6=
EXTT7=
EXTT8=
EXTT9=
EXTT10=
EXTT11=
EXTT12=
EXTT13=
EXTT14=
EXTT15=
EXTT16=
EXTT17=
EXTT18=
PLAYORDER=
